<svg xmlns="http://www.w3.org/2000/svg" width="634" height="82">
<rect name="2022-02-15" alt="4" fill="#c6e48b" width="10" height="10" y="24" x="624" />
<rect name="2022-02-14" alt="3" fill="#c6e48b" width="10" height="10" y="12" x="624" />
<rect name="2022-02-13" alt="1" fill="#c6e48b" width="10" height="10" y="0" x="624" />
<rect name="2022-02-12" alt="0" fill="#ffaaaa" width="10" height="10" y="72" x="612" />
<rect name="2022-02-11" alt="5" fill="#c6e48b" width="10" height="10" y="60" x="612" />
<rect name="2022-02-10" alt="2" fill="#c6e48b" width="10" height="10" y="48" x="612" />
<rect name="2022-02-09" alt="23" fill="#9cd963" width="10" height="10" y="36" x="612" />
<rect name="2022-02-08" alt="12" fill="#b2df77" width="10" height="10" y="24" x="612" />
<rect name="2022-02-07" alt="26" fill="#90d659" width="10" height="10" y="12" x="612" />
<rect name="2022-02-06" alt="39" fill="#76d145" width="10" height="10" y="0" x="612" />
<rect name="2022-02-05" alt="49" fill="#5ac933" width="10" height="10" y="72" x="600" />
<rect name="2022-02-04" alt="12" fill="#b2df77" width="10" height="10" y="60" x="600" />
<rect name="2022-02-03" alt="13" fill="#b2df77" width="10" height="10" y="48" x="600" />
<rect name="2022-02-02" alt="26" fill="#90d659" width="10" height="10" y="36" x="600" />
<rect name="2022-02-01" alt="1" fill="#c6e48b" width="10" height="10" y="24" x="600" />
<rect name="2022-01-31" alt="22" fill="#9cd963" width="10" height="10" y="12" x="600" />
<rect name="2022-01-30" alt="13" fill="#b2df77" width="10" height="10" y="0" x="600" />
<rect name="2022-01-29" alt="0" fill="#ffaaaa" width="10" height="10" y="72" x="588" />
<rect name="2022-01-28" alt="8" fill="#bde181" width="10" height="10" y="60" x="588" />
<rect name="2022-01-27" alt="0" fill="#ffaaaa" width="10" height="10" y="48" x="588" />
<rect name="2022-01-26" alt="6" fill="#bde181" width="10" height="10" y="36" x="588" />
<rect name="2022-01-25" alt="1" fill="#c6e48b" width="10" height="10" y="24" x="588" />
<rect name="2022-01-24" alt="6" fill="#bde181" width="10" height="10" y="12" x="588" />
<rect name="2022-01-23" alt="15" fill="#b2df77" width="10" height="10" y="0" x="588" />
<rect name="2022-01-22" alt="47" fill="#5ac933" width="10" height="10" y="72" x="576" />
<rect name="2022-01-21" alt="12" fill="#b2df77" width="10" height="10" y="60" x="576" />
<rect name="2022-01-20" alt="12" fill="#b2df77" width="10" height="10" y="48" x="576" />
<rect name="2022-01-19" alt="26" fill="#90d659" width="10" height="10" y="36" x="576" />
<rect name="2022-01-18" alt="7" fill="#bde181" width="10" height="10" y="24" x="576" />
<rect name="2022-01-17" alt="8" fill="#bde181" width="10" height="10" y="12" x="576" />
<rect name="2022-01-16" alt="10" fill="#bde181" width="10" height="10" y="0" x="576" />
<rect name="2022-01-15" alt="3" fill="#c6e48b" width="10" height="10" y="72" x="564" />
<rect name="2022-01-14" alt="5" fill="#c6e48b" width="10" height="10" y="60" x="564" />
<rect name="2022-01-13" alt="2" fill="#c6e48b" width="10" height="10" y="48" x="564" />
<rect name="2022-01-12" alt="2" fill="#c6e48b" width="10" height="10" y="36" x="564" />
<rect name="2022-01-11" alt="2" fill="#c6e48b" width="10" height="10" y="24" x="564" />
<rect name="2022-01-10" alt="8" fill="#bde181" width="10" height="10" y="12" x="564" />
<rect name="2022-01-09" alt="2" fill="#c6e48b" width="10" height="10" y="0" x="564" />
<rect name="2022-01-08" alt="0" fill="#ffaaaa" width="10" height="10" y="72" x="552" />
<rect name="2022-01-07" alt="17" fill="#a8dc6d" width="10" height="10" y="60" x="552" />
<rect name="2022-01-06" alt="0" fill="#ffaaaa" width="10" height="10" y="48" x="552" />
<rect name="2022-01-05" alt="3" fill="#c6e48b" width="10" height="10" y="36" x="552" />
<rect name="2022-01-04" alt="11" fill="#b2df77" width="10" height="10" y="24" x="552" />
<rect name="2022-01-03" alt="7" fill="#bde181" width="10" height="10" y="12" x="552" />
<rect name="2022-01-02" alt="1" fill="#c6e48b" width="10" height="10" y="0" x="552" />
<rect name="2022-01-01" alt="0" fill="#ffaaaa" width="10" height="10" y="72" x="540" />
<rect name="2021-12-31" alt="12" fill="#b2df77" width="10" height="10" y="60" x="540" />
<rect name="2021-12-30" alt="19" fill="#a8dc6d" width="10" height="10" y="48" x="540" />
<rect name="2021-12-29" alt="2" fill="#c6e48b" width="10" height="10" y="36" x="540" />
<rect name="2021-12-28" alt="0" fill="#ffaaaa" width="10" height="10" y="24" x="540" />
<rect name="2021-12-27" alt="1" fill="#c6e48b" width="10" height="10" y="12" x="540" />
<rect name="2021-12-26" alt="6" fill="#bde181" width="10" height="10" y="0" x="540" />
<rect name="2021-12-25" alt="3" fill="#c6e48b" width="10" height="10" y="72" x="528" />
<rect name="2021-12-24" alt="0" fill="#ffaaaa" width="10" height="10" y="60" x="528" />
<rect name="2021-12-23" alt="11" fill="#b2df77" width="10" height="10" y="48" x="528" />
<rect name="2021-12-22" alt="34" fill="#83d44f" width="10" height="10" y="36" x="528" />
<rect name="2021-12-21" alt="1" fill="#c6e48b" width="10" height="10" y="24" x="528" />
<rect name="2021-12-20" alt="2" fill="#c6e48b" width="10" height="10" y="12" x="528" />
<rect name="2021-12-19" alt="1" fill="#c6e48b" width="10" height="10" y="0" x="528" />
<rect name="2021-12-18" alt="1" fill="#c6e48b" width="10" height="10" y="72" x="516" />
<rect name="2021-12-17" alt="0" fill="#ffaaaa" width="10" height="10" y="60" x="516" />
<rect name="2021-12-16" alt="3" fill="#c6e48b" width="10" height="10" y="48" x="516" />
<rect name="2021-12-15" alt="8" fill="#bde181" width="10" height="10" y="36" x="516" />
<rect name="2021-12-14" alt="11" fill="#b2df77" width="10" height="10" y="24" x="516" />
<rect name="2021-12-13" alt="14" fill="#b2df77" width="10" height="10" y="12" x="516" />
<rect name="2021-12-12" alt="43" fill="#68ce3b" width="10" height="10" y="0" x="516" />
<rect name="2021-12-11" alt="40" fill="#76d145" width="10" height="10" y="72" x="504" />
<rect name="2021-12-10" alt="35" fill="#83d44f" width="10" height="10" y="60" x="504" />
<rect name="2021-12-09" alt="1" fill="#c6e48b" width="10" height="10" y="48" x="504" />
<rect name="2021-12-08" alt="0" fill="#ffaaaa" width="10" height="10" y="36" x="504" />
<rect name="2021-12-07" alt="35" fill="#83d44f" width="10" height="10" y="24" x="504" />
<rect name="2021-12-06" alt="26" fill="#90d659" width="10" height="10" y="12" x="504" />
<rect name="2021-12-05" alt="33" fill="#83d44f" width="10" height="10" y="0" x="504" />
<rect name="2021-12-04" alt="50" fill="#5ac933" width="10" height="10" y="72" x="492" />
<rect name="2021-12-03" alt="11" fill="#b2df77" width="10" height="10" y="60" x="492" />
<rect name="2021-12-02" alt="28" fill="#90d659" width="10" height="10" y="48" x="492" />
<rect name="2021-12-01" alt="68" fill="#34a02a" width="10" height="10" y="36" x="492" />
<rect name="2021-11-30" alt="65" fill="#3caa2c" width="10" height="10" y="24" x="492" />
<rect name="2021-11-29" alt="86" fill="#207628" width="10" height="10" y="12" x="492" />
<rect name="2021-11-28" alt="0" fill="#ffaaaa" width="10" height="10" y="0" x="492" />
<rect name="2021-11-27" alt="0" fill="#ffaaaa" width="10" height="10" y="72" x="480" />
<rect name="2021-11-26" alt="4" fill="#c6e48b" width="10" height="10" y="60" x="480" />
<rect name="2021-11-25" alt="2" fill="#c6e48b" width="10" height="10" y="48" x="480" />
<rect name="2021-11-24" alt="3" fill="#c6e48b" width="10" height="10" y="36" x="480" />
<rect name="2021-11-23" alt="12" fill="#b2df77" width="10" height="10" y="24" x="480" />
<rect name="2021-11-22" alt="96" fill="#1b6228" width="10" height="10" y="12" x="480" />
<rect name="2021-11-21" alt="28" fill="#90d659" width="10" height="10" y="0" x="480" />
<rect name="2021-11-20" alt="0" fill="#ffaaaa" width="10" height="10" y="72" x="468" />
<rect name="2021-11-19" alt="18" fill="#a8dc6d" width="10" height="10" y="60" x="468" />
<rect name="2021-11-18" alt="9" fill="#bde181" width="10" height="10" y="48" x="468" />
<rect name="2021-11-17" alt="56" fill="#46b42e" width="10" height="10" y="36" x="468" />
<rect name="2021-11-16" alt="42" fill="#68ce3b" width="10" height="10" y="24" x="468" />
<rect name="2021-11-15" alt="23" fill="#9cd963" width="10" height="10" y="12" x="468" />
<rect name="2021-11-14" alt="65" fill="#3caa2c" width="10" height="10" y="0" x="468" />
<rect name="2021-11-13" alt="24" fill="#9cd963" width="10" height="10" y="72" x="456" />
<rect name="2021-11-12" alt="7" fill="#bde181" width="10" height="10" y="60" x="456" />
<rect name="2021-11-11" alt="32" fill="#83d44f" width="10" height="10" y="48" x="456" />
<rect name="2021-11-10" alt="23" fill="#9cd963" width="10" height="10" y="36" x="456" />
<rect name="2021-11-09" alt="8" fill="#bde181" width="10" height="10" y="24" x="456" />
<rect name="2021-11-08" alt="6" fill="#bde181" width="10" height="10" y="12" x="456" />
<rect name="2021-11-07" alt="0" fill="#ffaaaa" width="10" height="10" y="0" x="456" />
<rect name="2021-11-06" alt="0" fill="#ffaaaa" width="10" height="10" y="72" x="444" />
<rect name="2021-11-05" alt="2" fill="#c6e48b" width="10" height="10" y="60" x="444" />
<rect name="2021-11-04" alt="7" fill="#bde181" width="10" height="10" y="48" x="444" />
<rect name="2021-11-03" alt="2" fill="#c6e48b" width="10" height="10" y="36" x="444" />
<rect name="2021-11-02" alt="11" fill="#b2df77" width="10" height="10" y="24" x="444" />
<rect name="2021-11-01" alt="1" fill="#c6e48b" width="10" height="10" y="12" x="444" />
<rect name="2021-10-31" alt="6" fill="#bde181" width="10" height="10" y="0" x="444" />
<rect name="2021-10-30" alt="7" fill="#bde181" width="10" height="10" y="72" x="432" />
<rect name="2021-10-29" alt="8" fill="#bde181" width="10" height="10" y="60" x="432" />
<rect name="2021-10-28" alt="6" fill="#bde181" width="10" height="10" y="48" x="432" />
<rect name="2021-10-27" alt="3" fill="#c6e48b" width="10" height="10" y="36" x="432" />
<rect name="2021-10-26" alt="6" fill="#bde181" width="10" height="10" y="24" x="432" />
<rect name="2021-10-25" alt="3" fill="#c6e48b" width="10" height="10" y="12" x="432" />
<rect name="2021-10-24" alt="0" fill="#ffaaaa" width="10" height="10" y="0" x="432" />
<rect name="2021-10-23" alt="11" fill="#b2df77" width="10" height="10" y="72" x="420" />
<rect name="2021-10-22" alt="0" fill="#ffaaaa" width="10" height="10" y="60" x="420" />
<rect name="2021-10-21" alt="0" fill="#ffaaaa" width="10" height="10" y="48" x="420" />
<rect name="2021-10-20" alt="12" fill="#b2df77" width="10" height="10" y="36" x="420" />
<rect name="2021-10-19" alt="2" fill="#c6e48b" width="10" height="10" y="24" x="420" />
<rect name="2021-10-18" alt="0" fill="#ffaaaa" width="10" height="10" y="12" x="420" />
<rect name="2021-10-17" alt="0" fill="#ffaaaa" width="10" height="10" y="0" x="420" />
<rect name="2021-10-16" alt="0" fill="#ffaaaa" width="10" height="10" y="72" x="408" />
<rect name="2021-10-15" alt="4" fill="#c6e48b" width="10" height="10" y="60" x="408" />
<rect name="2021-10-14" alt="10" fill="#bde181" width="10" height="10" y="48" x="408" />
<rect name="2021-10-13" alt="6" fill="#bde181" width="10" height="10" y="36" x="408" />
<rect name="2021-10-12" alt="0" fill="#ffaaaa" width="10" height="10" y="24" x="408" />
<rect name="2021-10-11" alt="0" fill="#ffaaaa" width="10" height="10" y="12" x="408" />
<rect name="2021-10-10" alt="0" fill="#ffaaaa" width="10" height="10" y="0" x="408" />
<rect name="2021-10-09" alt="0" fill="#ffaaaa" width="10" height="10" y="72" x="396" />
<rect name="2021-10-08" alt="0" fill="#ffaaaa" width="10" height="10" y="60" x="396" />
<rect name="2021-10-07" alt="1" fill="#c6e48b" width="10" height="10" y="48" x="396" />
<rect name="2021-10-06" alt="11" fill="#b2df77" width="10" height="10" y="36" x="396" />
<rect name="2021-10-05" alt="0" fill="#ffaaaa" width="10" height="10" y="24" x="396" />
<rect name="2021-10-04" alt="2" fill="#c6e48b" width="10" height="10" y="12" x="396" />
<rect name="2021-10-03" alt="5" fill="#c6e48b" width="10" height="10" y="0" x="396" />
<rect name="2021-10-02" alt="4" fill="#c6e48b" width="10" height="10" y="72" x="384" />
<rect name="2021-10-01" alt="16" fill="#a8dc6d" width="10" height="10" y="60" x="384" />
<rect name="2021-09-30" alt="7" fill="#bde181" width="10" height="10" y="48" x="384" />
<rect name="2021-09-29" alt="5" fill="#c6e48b" width="10" height="10" y="36" x="384" />
<rect name="2021-09-28" alt="10" fill="#bde181" width="10" height="10" y="24" x="384" />
<rect name="2021-09-27" alt="8" fill="#bde181" width="10" height="10" y="12" x="384" />
<rect name="2021-09-26" alt="0" fill="#ffaaaa" width="10" height="10" y="0" x="384" />
<rect name="2021-09-25" alt="0" fill="#ffaaaa" width="10" height="10" y="72" x="372" />
<rect name="2021-09-24" alt="0" fill="#ffaaaa" width="10" height="10" y="60" x="372" />
<rect name="2021-09-23" alt="5" fill="#c6e48b" width="10" height="10" y="48" x="372" />
<rect name="2021-09-22" alt="3" fill="#c6e48b" width="10" height="10" y="36" x="372" />
<rect name="2021-09-21" alt="1" fill="#c6e48b" width="10" height="10" y="24" x="372" />
<rect name="2021-09-20" alt="3" fill="#c6e48b" width="10" height="10" y="12" x="372" />
<rect name="2021-09-19" alt="0" fill="#ffaaaa" width="10" height="10" y="0" x="372" />
<rect name="2021-09-18" alt="0" fill="#ffaaaa" width="10" height="10" y="72" x="360" />
<rect name="2021-09-17" alt="0" fill="#ffaaaa" width="10" height="10" y="60" x="360" />
<rect name="2021-09-16" alt="14" fill="#b2df77" width="10" height="10" y="48" x="360" />
<rect name="2021-09-15" alt="3" fill="#c6e48b" width="10" height="10" y="36" x="360" />
<rect name="2021-09-14" alt="13" fill="#b2df77" width="10" height="10" y="24" x="360" />
<rect name="2021-09-13" alt="13" fill="#b2df77" width="10" height="10" y="12" x="360" />
<rect name="2021-09-12" alt="0" fill="#ffaaaa" width="10" height="10" y="0" x="360" />
<rect name="2021-09-11" alt="7" fill="#bde181" width="10" height="10" y="72" x="348" />
<rect name="2021-09-10" alt="0" fill="#ffaaaa" width="10" height="10" y="60" x="348" />
<rect name="2021-09-09" alt="3" fill="#c6e48b" width="10" height="10" y="48" x="348" />
<rect name="2021-09-08" alt="1" fill="#c6e48b" width="10" height="10" y="36" x="348" />
<rect name="2021-09-07" alt="1" fill="#c6e48b" width="10" height="10" y="24" x="348" />
<rect name="2021-09-06" alt="3" fill="#c6e48b" width="10" height="10" y="12" x="348" />
<rect name="2021-09-05" alt="0" fill="#ffaaaa" width="10" height="10" y="0" x="348" />
<rect name="2021-09-04" alt="0" fill="#ffaaaa" width="10" height="10" y="72" x="336" />
<rect name="2021-09-03" alt="0" fill="#ffaaaa" width="10" height="10" y="60" x="336" />
<rect name="2021-09-02" alt="0" fill="#ffaaaa" width="10" height="10" y="48" x="336" />
<rect name="2021-09-01" alt="2" fill="#c6e48b" width="10" height="10" y="36" x="336" />
<rect name="2021-08-31" alt="19" fill="#a8dc6d" width="10" height="10" y="24" x="336" />
<rect name="2021-08-30" alt="66" fill="#34a02a" width="10" height="10" y="12" x="336" />
<rect name="2021-08-29" alt="15" fill="#b2df77" width="10" height="10" y="0" x="336" />
<rect name="2021-08-28" alt="6" fill="#bde181" width="10" height="10" y="72" x="324" />
<rect name="2021-08-27" alt="16" fill="#a8dc6d" width="10" height="10" y="60" x="324" />
<rect name="2021-08-26" alt="11" fill="#b2df77" width="10" height="10" y="48" x="324" />
<rect name="2021-08-25" alt="12" fill="#b2df77" width="10" height="10" y="36" x="324" />
<rect name="2021-08-24" alt="2" fill="#c6e48b" width="10" height="10" y="24" x="324" />
<rect name="2021-08-23" alt="9" fill="#bde181" width="10" height="10" y="12" x="324" />
<rect name="2021-08-22" alt="17" fill="#a8dc6d" width="10" height="10" y="0" x="324" />
<rect name="2021-08-21" alt="4" fill="#c6e48b" width="10" height="10" y="72" x="312" />
<rect name="2021-08-20" alt="0" fill="#ffaaaa" width="10" height="10" y="60" x="312" />
<rect name="2021-08-19" alt="1" fill="#c6e48b" width="10" height="10" y="48" x="312" />
<rect name="2021-08-18" alt="0" fill="#ffaaaa" width="10" height="10" y="36" x="312" />
<rect name="2021-08-17" alt="1" fill="#c6e48b" width="10" height="10" y="24" x="312" />
<rect name="2021-08-16" alt="1" fill="#c6e48b" width="10" height="10" y="12" x="312" />
<rect name="2021-08-15" alt="1" fill="#c6e48b" width="10" height="10" y="0" x="312" />
<rect name="2021-08-14" alt="1" fill="#c6e48b" width="10" height="10" y="72" x="300" />
<rect name="2021-08-13" alt="0" fill="#ffaaaa" width="10" height="10" y="60" x="300" />
<rect name="2021-08-12" alt="0" fill="#ffaaaa" width="10" height="10" y="48" x="300" />
<rect name="2021-08-11" alt="0" fill="#ffaaaa" width="10" height="10" y="36" x="300" />
<rect name="2021-08-10" alt="19" fill="#a8dc6d" width="10" height="10" y="24" x="300" />
<rect name="2021-08-09" alt="0" fill="#ffaaaa" width="10" height="10" y="12" x="300" />
<rect name="2021-08-08" alt="0" fill="#ffaaaa" width="10" height="10" y="0" x="300" />
<rect name="2021-08-07" alt="0" fill="#ffaaaa" width="10" height="10" y="72" x="288" />
<rect name="2021-08-06" alt="0" fill="#ffaaaa" width="10" height="10" y="60" x="288" />
<rect name="2021-08-05" alt="0" fill="#ffaaaa" width="10" height="10" y="48" x="288" />
<rect name="2021-08-04" alt="0" fill="#ffaaaa" width="10" height="10" y="36" x="288" />
<rect name="2021-08-03" alt="0" fill="#ffaaaa" width="10" height="10" y="24" x="288" />
<rect name="2021-08-02" alt="2" fill="#c6e48b" width="10" height="10" y="12" x="288" />
<rect name="2021-08-01" alt="0" fill="#ffaaaa" width="10" height="10" y="0" x="288" />
<rect name="2021-07-31" alt="0" fill="#ffaaaa" width="10" height="10" y="72" x="276" />
<rect name="2021-07-30" alt="0" fill="#ffaaaa" width="10" height="10" y="60" x="276" />
<rect name="2021-07-29" alt="0" fill="#ffaaaa" width="10" height="10" y="48" x="276" />
<rect name="2021-07-28" alt="0" fill="#ffaaaa" width="10" height="10" y="36" x="276" />
<rect name="2021-07-27" alt="0" fill="#ffaaaa" width="10" height="10" y="24" x="276" />
<rect name="2021-07-26" alt="0" fill="#ffaaaa" width="10" height="10" y="12" x="276" />
<rect name="2021-07-25" alt="0" fill="#ffaaaa" width="10" height="10" y="0" x="276" />
<rect name="2021-07-24" alt="0" fill="#ffaaaa" width="10" height="10" y="72" x="264" />
<rect name="2021-07-23" alt="0" fill="#ffaaaa" width="10" height="10" y="60" x="264" />
<rect name="2021-07-22" alt="0" fill="#ffaaaa" width="10" height="10" y="48" x="264" />
<rect name="2021-07-21" alt="0" fill="#ffaaaa" width="10" height="10" y="36" x="264" />
<rect name="2021-07-20" alt="4" fill="#c6e48b" width="10" height="10" y="24" x="264" />
<rect name="2021-07-19" alt="0" fill="#ffaaaa" width="10" height="10" y="12" x="264" />
<rect name="2021-07-18" alt="0" fill="#ffaaaa" width="10" height="10" y="0" x="264" />
<rect name="2021-07-17" alt="0" fill="#ffaaaa" width="10" height="10" y="72" x="252" />
<rect name="2021-07-16" alt="0" fill="#ffaaaa" width="10" height="10" y="60" x="252" />
<rect name="2021-07-15" alt="0" fill="#ffaaaa" width="10" height="10" y="48" x="252" />
<rect name="2021-07-14" alt="0" fill="#ffaaaa" width="10" height="10" y="36" x="252" />
<rect name="2021-07-13" alt="0" fill="#ffaaaa" width="10" height="10" y="24" x="252" />
<rect name="2021-07-12" alt="0" fill="#ffaaaa" width="10" height="10" y="12" x="252" />
<rect name="2021-07-11" alt="0" fill="#ffaaaa" width="10" height="10" y="0" x="252" />
<rect name="2021-07-10" alt="6" fill="#bde181" width="10" height="10" y="72" x="240" />
<rect name="2021-07-09" alt="28" fill="#90d659" width="10" height="10" y="60" x="240" />
<rect name="2021-07-08" alt="14" fill="#b2df77" width="10" height="10" y="48" x="240" />
<rect name="2021-07-07" alt="42" fill="#68ce3b" width="10" height="10" y="36" x="240" />
<rect name="2021-07-06" alt="1" fill="#c6e48b" width="10" height="10" y="24" x="240" />
<rect name="2021-07-05" alt="3" fill="#c6e48b" width="10" height="10" y="12" x="240" />
<rect name="2021-07-04" alt="13" fill="#b2df77" width="10" height="10" y="0" x="240" />
<rect name="2021-07-03" alt="75" fill="#2c9527" width="10" height="10" y="72" x="228" />
<rect name="2021-07-02" alt="34" fill="#83d44f" width="10" height="10" y="60" x="228" />
<rect name="2021-07-01" alt="0" fill="#ffaaaa" width="10" height="10" y="48" x="228" />
<rect name="2021-06-30" alt="11" fill="#b2df77" width="10" height="10" y="36" x="228" />
<rect name="2021-06-29" alt="3" fill="#c6e48b" width="10" height="10" y="24" x="228" />
<rect name="2021-06-28" alt="2" fill="#c6e48b" width="10" height="10" y="12" x="228" />
<rect name="2021-06-27" alt="17" fill="#a8dc6d" width="10" height="10" y="0" x="228" />
<rect name="2021-06-26" alt="2" fill="#c6e48b" width="10" height="10" y="72" x="216" />
<rect name="2021-06-25" alt="3" fill="#c6e48b" width="10" height="10" y="60" x="216" />
<rect name="2021-06-24" alt="9" fill="#bde181" width="10" height="10" y="48" x="216" />
<rect name="2021-06-23" alt="10" fill="#bde181" width="10" height="10" y="36" x="216" />
<rect name="2021-06-22" alt="18" fill="#a8dc6d" width="10" height="10" y="24" x="216" />
<rect name="2021-06-21" alt="11" fill="#b2df77" width="10" height="10" y="12" x="216" />
<rect name="2021-06-20" alt="8" fill="#bde181" width="10" height="10" y="0" x="216" />
<rect name="2021-06-19" alt="0" fill="#ffaaaa" width="10" height="10" y="72" x="204" />
<rect name="2021-06-18" alt="0" fill="#ffaaaa" width="10" height="10" y="60" x="204" />
<rect name="2021-06-17" alt="0" fill="#ffaaaa" width="10" height="10" y="48" x="204" />
<rect name="2021-06-16" alt="2" fill="#c6e48b" width="10" height="10" y="36" x="204" />
<rect name="2021-06-15" alt="0" fill="#ffaaaa" width="10" height="10" y="24" x="204" />
<rect name="2021-06-14" alt="2" fill="#c6e48b" width="10" height="10" y="12" x="204" />
<rect name="2021-06-13" alt="9" fill="#bde181" width="10" height="10" y="0" x="204" />
<rect name="2021-06-12" alt="0" fill="#ffaaaa" width="10" height="10" y="72" x="192" />
<rect name="2021-06-11" alt="0" fill="#ffaaaa" width="10" height="10" y="60" x="192" />
<rect name="2021-06-10" alt="0" fill="#ffaaaa" width="10" height="10" y="48" x="192" />
<rect name="2021-06-09" alt="0" fill="#ffaaaa" width="10" height="10" y="36" x="192" />
<rect name="2021-06-08" alt="0" fill="#ffaaaa" width="10" height="10" y="24" x="192" />
<rect name="2021-06-07" alt="0" fill="#ffaaaa" width="10" height="10" y="12" x="192" />
<rect name="2021-06-06" alt="0" fill="#ffaaaa" width="10" height="10" y="0" x="192" />
<rect name="2021-06-05" alt="0" fill="#ffaaaa" width="10" height="10" y="72" x="180" />
<rect name="2021-06-04" alt="0" fill="#ffaaaa" width="10" height="10" y="60" x="180" />
<rect name="2021-06-03" alt="0" fill="#ffaaaa" width="10" height="10" y="48" x="180" />
<rect name="2021-06-02" alt="62" fill="#3caa2c" width="10" height="10" y="36" x="180" />
<rect name="2021-06-01" alt="10" fill="#bde181" width="10" height="10" y="24" x="180" />
<rect name="2021-05-31" alt="12" fill="#b2df77" width="10" height="10" y="12" x="180" />
<rect name="2021-05-30" alt="10" fill="#bde181" width="10" height="10" y="0" x="180" />
<rect name="2021-05-29" alt="14" fill="#b2df77" width="10" height="10" y="72" x="168" />
<rect name="2021-05-28" alt="4" fill="#c6e48b" width="10" height="10" y="60" x="168" />
<rect name="2021-05-27" alt="0" fill="#ffaaaa" width="10" height="10" y="48" x="168" />
<rect name="2021-05-26" alt="0" fill="#ffaaaa" width="10" height="10" y="36" x="168" />
<rect name="2021-05-25" alt="7" fill="#bde181" width="10" height="10" y="24" x="168" />
<rect name="2021-05-24" alt="4" fill="#c6e48b" width="10" height="10" y="12" x="168" />
<rect name="2021-05-23" alt="3" fill="#c6e48b" width="10" height="10" y="0" x="168" />
<rect name="2021-05-22" alt="32" fill="#83d44f" width="10" height="10" y="72" x="156" />
<rect name="2021-05-21" alt="6" fill="#bde181" width="10" height="10" y="60" x="156" />
<rect name="2021-05-20" alt="12" fill="#b2df77" width="10" height="10" y="48" x="156" />
<rect name="2021-05-19" alt="59" fill="#46b42e" width="10" height="10" y="36" x="156" />
<rect name="2021-05-18" alt="37" fill="#76d145" width="10" height="10" y="24" x="156" />
<rect name="2021-05-17" alt="3" fill="#c6e48b" width="10" height="10" y="12" x="156" />
<rect name="2021-05-16" alt="0" fill="#ffaaaa" width="10" height="10" y="0" x="156" />
<rect name="2021-05-15" alt="1" fill="#c6e48b" width="10" height="10" y="72" x="144" />
<rect name="2021-05-14" alt="0" fill="#ffaaaa" width="10" height="10" y="60" x="144" />
<rect name="2021-05-13" alt="3" fill="#c6e48b" width="10" height="10" y="48" x="144" />
<rect name="2021-05-12" alt="2" fill="#c6e48b" width="10" height="10" y="36" x="144" />
<rect name="2021-05-11" alt="2" fill="#c6e48b" width="10" height="10" y="24" x="144" />
<rect name="2021-05-10" alt="1" fill="#c6e48b" width="10" height="10" y="12" x="144" />
<rect name="2021-05-09" alt="1" fill="#c6e48b" width="10" height="10" y="0" x="144" />
<rect name="2021-05-08" alt="0" fill="#ffaaaa" width="10" height="10" y="72" x="132" />
<rect name="2021-05-07" alt="7" fill="#bde181" width="10" height="10" y="60" x="132" />
<rect name="2021-05-06" alt="5" fill="#c6e48b" width="10" height="10" y="48" x="132" />
<rect name="2021-05-05" alt="4" fill="#c6e48b" width="10" height="10" y="36" x="132" />
<rect name="2021-05-04" alt="10" fill="#bde181" width="10" height="10" y="24" x="132" />
<rect name="2021-05-03" alt="15" fill="#b2df77" width="10" height="10" y="12" x="132" />
<rect name="2021-05-02" alt="1" fill="#c6e48b" width="10" height="10" y="0" x="132" />
<rect name="2021-05-01" alt="3" fill="#c6e48b" width="10" height="10" y="72" x="120" />
<rect name="2021-04-30" alt="13" fill="#b2df77" width="10" height="10" y="60" x="120" />
<rect name="2021-04-29" alt="0" fill="#ffaaaa" width="10" height="10" y="48" x="120" />
<rect name="2021-04-28" alt="3" fill="#c6e48b" width="10" height="10" y="36" x="120" />
<rect name="2021-04-27" alt="1" fill="#c6e48b" width="10" height="10" y="24" x="120" />
<rect name="2021-04-26" alt="0" fill="#ffaaaa" width="10" height="10" y="12" x="120" />
<rect name="2021-04-25" alt="11" fill="#b2df77" width="10" height="10" y="0" x="120" />
<rect name="2021-04-24" alt="16" fill="#a8dc6d" width="10" height="10" y="72" x="108" />
<rect name="2021-04-23" alt="1" fill="#c6e48b" width="10" height="10" y="60" x="108" />
<rect name="2021-04-22" alt="7" fill="#bde181" width="10" height="10" y="48" x="108" />
<rect name="2021-04-21" alt="0" fill="#ffaaaa" width="10" height="10" y="36" x="108" />
<rect name="2021-04-20" alt="0" fill="#ffaaaa" width="10" height="10" y="24" x="108" />
<rect name="2021-04-19" alt="0" fill="#ffaaaa" width="10" height="10" y="12" x="108" />
<rect name="2021-04-18" alt="3" fill="#c6e48b" width="10" height="10" y="0" x="108" />
<rect name="2021-04-17" alt="0" fill="#ffaaaa" width="10" height="10" y="72" x="96" />
<rect name="2021-04-16" alt="0" fill="#ffaaaa" width="10" height="10" y="60" x="96" />
<rect name="2021-04-15" alt="2" fill="#c6e48b" width="10" height="10" y="48" x="96" />
<rect name="2021-04-14" alt="7" fill="#bde181" width="10" height="10" y="36" x="96" />
<rect name="2021-04-13" alt="4" fill="#c6e48b" width="10" height="10" y="24" x="96" />
<rect name="2021-04-12" alt="2" fill="#c6e48b" width="10" height="10" y="12" x="96" />
<rect name="2021-04-11" alt="4" fill="#c6e48b" width="10" height="10" y="0" x="96" />
<rect name="2021-04-10" alt="3" fill="#c6e48b" width="10" height="10" y="72" x="84" />
<rect name="2021-04-09" alt="7" fill="#bde181" width="10" height="10" y="60" x="84" />
<rect name="2021-04-08" alt="1" fill="#c6e48b" width="10" height="10" y="48" x="84" />
<rect name="2021-04-07" alt="0" fill="#ffaaaa" width="10" height="10" y="36" x="84" />
<rect name="2021-04-06" alt="1" fill="#c6e48b" width="10" height="10" y="24" x="84" />
<rect name="2021-04-05" alt="4" fill="#c6e48b" width="10" height="10" y="12" x="84" />
<rect name="2021-04-04" alt="6" fill="#bde181" width="10" height="10" y="0" x="84" />
<rect name="2021-04-03" alt="1" fill="#c6e48b" width="10" height="10" y="72" x="72" />
<rect name="2021-04-02" alt="0" fill="#ffaaaa" width="10" height="10" y="60" x="72" />
<rect name="2021-04-01" alt="4" fill="#c6e48b" width="10" height="10" y="48" x="72" />
<rect name="2021-03-31" alt="1" fill="#c6e48b" width="10" height="10" y="36" x="72" />
<rect name="2021-03-30" alt="10" fill="#bde181" width="10" height="10" y="24" x="72" />
<rect name="2021-03-29" alt="15" fill="#b2df77" width="10" height="10" y="12" x="72" />
<rect name="2021-03-28" alt="17" fill="#a8dc6d" width="10" height="10" y="0" x="72" />
<rect name="2021-03-27" alt="16" fill="#a8dc6d" width="10" height="10" y="72" x="60" />
<rect name="2021-03-26" alt="0" fill="#ffaaaa" width="10" height="10" y="60" x="60" />
<rect name="2021-03-25" alt="2" fill="#c6e48b" width="10" height="10" y="48" x="60" />
<rect name="2021-03-24" alt="7" fill="#bde181" width="10" height="10" y="36" x="60" />
<rect name="2021-03-23" alt="5" fill="#c6e48b" width="10" height="10" y="24" x="60" />
<rect name="2021-03-22" alt="4" fill="#c6e48b" width="10" height="10" y="12" x="60" />
<rect name="2021-03-21" alt="10" fill="#bde181" width="10" height="10" y="0" x="60" />
<rect name="2021-03-20" alt="2" fill="#c6e48b" width="10" height="10" y="72" x="48" />
<rect name="2021-03-19" alt="2" fill="#c6e48b" width="10" height="10" y="60" x="48" />
<rect name="2021-03-18" alt="11" fill="#b2df77" width="10" height="10" y="48" x="48" />
<rect name="2021-03-17" alt="0" fill="#ffaaaa" width="10" height="10" y="36" x="48" />
<rect name="2021-03-16" alt="3" fill="#c6e48b" width="10" height="10" y="24" x="48" />
<rect name="2021-03-15" alt="8" fill="#bde181" width="10" height="10" y="12" x="48" />
<rect name="2021-03-14" alt="4" fill="#c6e48b" width="10" height="10" y="0" x="48" />
<rect name="2021-03-13" alt="9" fill="#bde181" width="10" height="10" y="72" x="36" />
<rect name="2021-03-12" alt="11" fill="#b2df77" width="10" height="10" y="60" x="36" />
<rect name="2021-03-11" alt="1" fill="#c6e48b" width="10" height="10" y="48" x="36" />
<rect name="2021-03-10" alt="9" fill="#bde181" width="10" height="10" y="36" x="36" />
<rect name="2021-03-09" alt="15" fill="#b2df77" width="10" height="10" y="24" x="36" />
<rect name="2021-03-08" alt="7" fill="#bde181" width="10" height="10" y="12" x="36" />
<rect name="2021-03-07" alt="0" fill="#ffaaaa" width="10" height="10" y="0" x="36" />
<rect name="2021-03-06" alt="4" fill="#c6e48b" width="10" height="10" y="72" x="24" />
<rect name="2021-03-05" alt="0" fill="#ffaaaa" width="10" height="10" y="60" x="24" />
<rect name="2021-03-04" alt="0" fill="#ffaaaa" width="10" height="10" y="48" x="24" />
<rect name="2021-03-03" alt="0" fill="#ffaaaa" width="10" height="10" y="36" x="24" />
<rect name="2021-03-02" alt="2" fill="#c6e48b" width="10" height="10" y="24" x="24" />
<rect name="2021-03-01" alt="1" fill="#c6e48b" width="10" height="10" y="12" x="24" />
<rect name="2021-02-28" alt="0" fill="#ffaaaa" width="10" height="10" y="0" x="24" />
<rect name="2021-02-27" alt="0" fill="#ffaaaa" width="10" height="10" y="72" x="12" />
<rect name="2021-02-26" alt="0" fill="#ffaaaa" width="10" height="10" y="60" x="12" />
<rect name="2021-02-25" alt="0" fill="#ffaaaa" width="10" height="10" y="48" x="12" />
<rect name="2021-02-24" alt="0" fill="#ffaaaa" width="10" height="10" y="36" x="12" />
<rect name="2021-02-23" alt="0" fill="#ffaaaa" width="10" height="10" y="24" x="12" />
<rect name="2021-02-22" alt="4" fill="#c6e48b" width="10" height="10" y="12" x="12" />
<rect name="2021-02-21" alt="0" fill="#ffaaaa" width="10" height="10" y="0" x="12" />
<rect name="2021-02-20" alt="4" fill="#c6e48b" width="10" height="10" y="72" x="0" />
<rect name="2021-02-19" alt="0" fill="#ffaaaa" width="10" height="10" y="60" x="0" />
<rect name="2021-02-18" alt="0" fill="#ffaaaa" width="10" height="10" y="48" x="0" />
<rect name="2021-02-17" alt="3" fill="#c6e48b" width="10" height="10" y="36" x="0" />
<rect name="2021-02-16" alt="0" fill="#ffaaaa" width="10" height="10" y="24" x="0" />
</svg>